<svg width="60" height="60" viewBox="0 0 60 60" fill="none" xmlns="http://www.w3.org/2000/svg">
<rect width="60" height="60" fill="#FA5022"/>
<rect x="4" y="4" width="52" height="52" rx="4.81481" fill="white"/>
<path d="M22.8664 35.0566C24.4839 34.7294 25.8723 34.9865 27.0317 35.828C28.2004 36.6601 28.7847 37.8428 28.7847 39.3762C28.7847 41.1526 28.0041 42.5971 26.4427 43.7097C24.8813 44.8224 23.0768 45.3787 21.0292 45.3787C19.1032 45.3787 17.5137 44.9205 16.2609 44.0043C15.0173 43.0786 14.3956 42.0502 14.3956 40.9189C14.3956 40.3859 14.5452 39.9558 14.8444 39.6286C15.1529 39.3014 15.5783 39.1377 16.1206 39.1377C16.7844 39.1377 17.2472 39.3528 17.509 39.7829C17.7895 40.213 17.9298 40.7085 17.9298 41.2695C17.9298 42.0549 18.1869 42.7467 18.7011 43.3451C19.2247 43.9341 20.0007 44.2287 21.0292 44.2287C22.2353 44.2287 23.1703 43.7986 23.8341 42.9384C24.5073 42.0689 24.8439 41.0124 24.8439 39.7689C24.8439 38.6843 24.5821 37.8101 24.0585 37.1463C23.5349 36.4824 22.8804 36.1505 22.0951 36.1505C21.5621 36.1505 20.8048 36.3328 19.8231 36.6975L19.3883 35.5755L20.5103 35.0847C22.5953 34.1777 23.6377 32.78 23.6377 30.8913C23.6377 29.9657 23.404 29.2271 22.9365 28.6755C22.4784 28.1238 21.8426 27.848 21.0292 27.848C20.2345 27.848 19.5893 28.1285 19.0938 28.6895C18.617 29.2411 18.3786 29.9657 18.3786 30.8633C18.3786 31.1251 18.43 31.485 18.5328 31.9432C18.645 32.4013 18.7011 32.7145 18.7011 32.8828C18.7011 33.3316 18.5515 33.6869 18.2523 33.9487C17.9625 34.2105 17.5838 34.3414 17.1163 34.3414C16.4806 34.3414 15.971 34.1029 15.5877 33.6261C15.2137 33.1493 15.0267 32.4995 15.0267 31.6767C15.0267 30.2369 15.5877 29.0494 16.7096 28.1145C17.8503 27.1702 19.3182 26.698 21.1133 26.698C22.8991 26.698 24.3156 27.1094 25.3628 27.9322C26.4193 28.7456 26.9475 29.7226 26.9475 30.8633C26.9475 31.8356 26.5642 32.6911 25.7975 33.4298C25.0402 34.159 24.0632 34.7013 22.8664 35.0566ZM44.4501 43.9341L45.0532 44.0183V45C42.6597 44.9065 40.2849 44.9065 37.9287 45V43.9902L38.5318 43.9341C39.0834 43.878 39.1302 43.4667 38.672 42.7L36.8909 39.853L35.0257 42.6158C34.8013 42.9992 34.7311 43.3124 34.8153 43.5555C34.9088 43.7892 35.1238 43.9154 35.4604 43.9341L36.4001 43.9902V45C34.3525 44.8972 32.2956 44.8972 30.2293 45V44.0183L30.7762 43.9341C31.9917 43.7565 32.9594 43.1441 33.6793 42.0969L36.0915 38.5627L32.6976 33.1353C32.146 32.2283 31.5429 31.7422 30.8884 31.6767L30.2854 31.5926V30.6108H37.494V31.6206L37.0592 31.6487C36.7133 31.6674 36.5169 31.8076 36.4702 32.0694C36.4234 32.3218 36.5263 32.6397 36.7787 33.0231L38.2653 35.3792L39.9062 32.995C40.1399 32.6117 40.1867 32.2985 40.0464 32.0554C39.9062 31.8029 39.6304 31.6674 39.219 31.6487L38.5318 31.6206V30.6108H44.6745V31.5926L44.1556 31.6767C43.4824 31.7889 42.9308 31.9759 42.5007 32.2377C42.08 32.4808 41.6639 32.9062 41.2525 33.5139L39.0787 36.6694L42.7532 42.4756C43.0617 42.9898 43.3329 43.3545 43.5666 43.5695C43.8003 43.7565 44.0949 43.878 44.4501 43.9341Z" fill="black"/>
<path d="M42.2998 19.3024C41.2822 19.3024 40.4567 18.4695 40.4567 17.4406C40.4567 16.4116 41.2822 15.5787 42.2998 15.5787C43.3174 15.5787 44.1418 16.4127 44.1418 17.4394C44.1418 18.4661 43.3163 19.3013 42.2998 19.3013V19.3024ZM44.1418 14.0511V14.9962C43.8741 14.6491 43.5271 14.3675 43.1281 14.1738C42.7292 13.98 42.2893 13.8794 41.8434 13.88C40.0131 13.88 38.595 15.4744 38.595 17.4394C38.595 19.4044 40.012 21 41.8434 21C42.3212 20.9998 42.7914 20.8843 43.212 20.6638C43.6326 20.4432 43.9905 20.1246 44.2535 19.7365V20.83H46V14.0523L44.1418 14.0511ZM22.8093 12.1722H24.6722V20.83H22.8093V12.1722ZM26.8134 16.9861C26.8134 15.1231 27.9881 13.88 29.617 13.88C30.6276 13.88 31.4252 14.3174 31.9072 15.0619C32.3892 14.3174 33.188 13.88 34.1986 13.88C35.8286 13.88 37.0022 15.1265 37.0022 16.9861V20.83H35.1393V16.7912C35.1393 16.0648 34.6445 15.59 33.989 15.59C33.3335 15.59 32.8387 16.0648 32.8387 16.7912V20.83H30.9758V16.7912C30.9758 16.0648 30.4809 15.59 29.8254 15.59C29.1699 15.59 28.6751 16.0648 28.6751 16.7912V20.83H26.8122L26.8134 16.9861ZM19.4363 14.1225C18.995 12.5145 18.0636 12 17.1752 12C16.2868 12 15.3554 12.5145 14.9153 14.1225L13 20.83H14.8873C15.0132 20.3318 15.307 19.889 15.7219 19.5724C16.1367 19.2559 16.6486 19.0838 17.1758 19.0838C17.7029 19.0838 18.2149 19.2559 18.6297 19.5724C19.0446 19.889 19.3384 20.3318 19.4642 20.83H21.3516L19.4363 14.1225ZM17.1752 17.5222C16.603 17.5194 16.0507 17.727 15.629 18.1035L16.7095 14.2007C16.8131 13.8279 16.9656 13.7089 17.1752 13.7089C17.3848 13.7089 17.5385 13.8222 17.6409 14.2007L18.7226 18.1046C18.3006 17.7276 17.748 17.5196 17.1752 17.5222Z" fill="black"/>
</svg>
