<svg width="60" height="60" viewBox="0 0 60 60" fill="none" xmlns="http://www.w3.org/2000/svg">
<rect width="60" height="60" fill="#FA5022"/>
<rect x="4" y="4" width="52" height="52" rx="4.81481" fill="white"/>
<path d="M27.7049 37.2444L28.0134 36.6133H28.7427L28.0414 39.306C27.9293 39.7361 27.6067 39.9605 27.0738 39.9792H25.2926V42.8402C25.2926 43.1862 25.4422 43.4386 25.7414 43.5975C26.05 43.7471 26.6063 43.85 27.4103 43.9061V45C24.6896 44.9252 21.8286 44.9252 18.8273 45V43.9061C19.7623 43.85 20.3981 43.7518 20.7347 43.6116C21.0713 43.4526 21.2396 43.1955 21.2396 42.8402V39.9792H14.9566L14.4377 38.0438L23.5957 26.698H25.2926V37.9877H25.8676C26.438 37.9877 26.8447 37.9457 27.0878 37.8615C27.3402 37.7774 27.5459 37.5717 27.7049 37.2444ZM15.784 37.9877H21.2396V31.27L15.784 37.9877ZM44.4081 43.9341L45.0111 44.0183V45C42.6176 44.9065 40.2428 44.9065 37.8867 45V43.9902L38.4897 43.9341C39.0413 43.878 39.0881 43.4667 38.63 42.7L36.8488 39.853L34.9836 42.6158C34.7592 42.9992 34.6891 43.3124 34.7732 43.5555C34.8667 43.7892 35.0818 43.9154 35.4183 43.9341L36.358 43.9902V45C34.3104 44.8972 32.2535 44.8972 30.1872 45V44.0183L30.7342 43.9341C31.9496 43.7565 32.9173 43.1441 33.6372 42.0969L36.0495 38.5627L32.6555 33.1353C32.1039 32.2283 31.5008 31.7422 30.8464 31.6767L30.2433 31.5926V30.6108H37.4519V31.6206L37.0171 31.6487C36.6712 31.6674 36.4749 31.8076 36.4281 32.0694C36.3814 32.3218 36.4842 32.6397 36.7367 33.0231L38.2233 35.3792L39.8641 32.995C40.0979 32.6117 40.1446 32.2985 40.0044 32.0554C39.8641 31.8029 39.5883 31.6674 39.1769 31.6487L38.4897 31.6206V30.6108H44.6325V31.5926L44.1136 31.6767C43.4404 31.7889 42.8887 31.9759 42.4587 32.2377C42.0379 32.4808 41.6219 32.9062 41.2105 33.5139L39.0367 36.6694L42.7111 42.4756C43.0196 42.9898 43.2908 43.3545 43.5245 43.5695C43.7583 43.7565 44.0528 43.878 44.4081 43.9341Z" fill="black"/>
<path d="M42.2998 19.3024C41.2822 19.3024 40.4567 18.4695 40.4567 17.4406C40.4567 16.4116 41.2822 15.5787 42.2998 15.5787C43.3174 15.5787 44.1418 16.4127 44.1418 17.4394C44.1418 18.4661 43.3163 19.3013 42.2998 19.3013V19.3024ZM44.1418 14.0511V14.9962C43.8741 14.6491 43.5271 14.3675 43.1281 14.1738C42.7292 13.98 42.2893 13.8794 41.8434 13.88C40.0131 13.88 38.595 15.4744 38.595 17.4394C38.595 19.4044 40.012 21 41.8434 21C42.3212 20.9998 42.7914 20.8843 43.212 20.6638C43.6326 20.4432 43.9905 20.1246 44.2535 19.7365V20.83H46V14.0523L44.1418 14.0511ZM22.8093 12.1722H24.6722V20.83H22.8093V12.1722ZM26.8134 16.9861C26.8134 15.1231 27.9881 13.88 29.617 13.88C30.6276 13.88 31.4252 14.3174 31.9072 15.0619C32.3892 14.3174 33.188 13.88 34.1986 13.88C35.8286 13.88 37.0022 15.1265 37.0022 16.9861V20.83H35.1393V16.7912C35.1393 16.0648 34.6445 15.59 33.989 15.59C33.3335 15.59 32.8387 16.0648 32.8387 16.7912V20.83H30.9758V16.7912C30.9758 16.0648 30.4809 15.59 29.8254 15.59C29.1699 15.59 28.6751 16.0648 28.6751 16.7912V20.83H26.8122L26.8134 16.9861ZM19.4363 14.1225C18.995 12.5145 18.0636 12 17.1752 12C16.2868 12 15.3554 12.5145 14.9153 14.1225L13 20.83H14.8873C15.0132 20.3318 15.307 19.889 15.7219 19.5724C16.1367 19.2559 16.6486 19.0838 17.1758 19.0838C17.7029 19.0838 18.2149 19.2559 18.6297 19.5724C19.0446 19.889 19.3384 20.3318 19.4642 20.83H21.3516L19.4363 14.1225ZM17.1752 17.5222C16.603 17.5194 16.0507 17.727 15.629 18.1035L16.7095 14.2007C16.8131 13.8279 16.9656 13.7089 17.1752 13.7089C17.3848 13.7089 17.5385 13.8222 17.6409 14.2007L18.7226 18.1046C18.3006 17.7276 17.748 17.5196 17.1752 17.5222Z" fill="black"/>
</svg>
