<svg xmlns="http://www.w3.org/2000/svg" xmlns:xlink="http://www.w3.org/1999/xlink" width="80px" height="24px" viewBox="0 0 1143.18 150" version="1.1">
    <defs>
        <style>
            .cls-1 {
            fill: #41b6e6;
            }
        </style>
    </defs>
    <path class="cls-1" d="M146.47,58.61h-13.07s-.24-1.05-.24-1.05c18.05-5.16,25.32-15.83,25.32-28.19,0-15.86-11.97-27.06-31.72-27.08h-42.54l-14.3,24.7h35.04c9.9,0,18.62,2.49,18.62,13.8,0,13.49-12.42,17.89-25.12,17.89h-46.89l-14.54,25.13h45.28c15.76,0,19.79,6.83,19.79,14.84,0,10.2-6.54,19.23-24.13,19.23H17.29L0,147.77h85.82c34.53,0,51.9-16.01,51.9-37.69,0-14.65-7.93-22.14-19.19-25.24l.28-1.13h52.21v-2.38c0-13.51-7.6-22.73-24.55-22.71Z"/>
    <g>
        <path class="cls-1" d="M369.22,2.3c-26.99,50.43-53.02,102.92-70.31,145.47h35.92c4.08-11.11,8.33-22.18,12.74-33.16,6.98-.7,12.52-1.04,19.08-1.04s11.75.32,18.3,1c0,12-.79,23.23-1.36,33.2h35.54c0-48.77-3.14-97.02-8.47-145.47h-41.44ZM373.15,82.99c-4.37,0-8.3.15-12.51.46,6.32-14.43,13.27-29.41,20.82-44.35h1.71c1.19,14.94,1.97,29.9,1.97,44.32-3.98-.29-7.77-.43-11.99-.43Z"/>
        <path class="cls-1" d="M735.77,0c-52.38-.01-71.13,56.48-71.13,93.66s18.88,56.34,49.19,56.34c52.32.01,70.47-56.66,70.47-93.85S766.02,0,735.77,0ZM716.91,119.33c-10.82,0-17.97-8.37-17.97-25.5,0-19.09,8.81-63.15,33.75-63.15,10.75,0,17.97,8.14,17.97,25.31,0,19.05-8.88,63.34-33.75,63.34Z"/>
        <path class="cls-1" d="M891.17,2.3c-12.2,18.88-29.44,54.97-35.25,76.57h-1.67c1.2-7.68,1.73-17.19,1.73-27.1,0-17.99-1.74-37.3-4.43-49.47h-45.2l-30.93,145.47h31.7l23.09-108.63h1.54c.59,10.54.96,21.17.94,30.53-.03,15.91-1.19,30.55-3.12,44.96h36.83c7.83-25.16,19.29-50.33,31.39-75.49h1.54l-23.09,108.63h31.7L938.65,2.3h-47.48Z"/>
        <path class="cls-1" d="M289.34,71.32l.23-1.45c20-5.71,29.01-19.32,29.01-35.74,0-19.13-12.24-31.84-36.82-31.84h-50.31l-30.92,145.47h60.31c31.58,0,48.29-24.67,48.29-46.79,0-12.94-5.72-24.8-19.79-29.66ZM256.46,118.67h-16.84l6.62-31.09h13.01c13.14,0,17.96,4.56,17.96,13.09,0,11.19-8.3,18.01-20.75,18.01ZM265.26,60.5h-13.27s6.15-29.17,6.15-29.17h12.03c7.34,0,13.78,2.8,13.78,12.45,0,10.7-7.93,16.73-18.69,16.72Z"/>
        <path class="cls-1" d="M664.48,57.57c.41-3.57.63-7.09.63-10.51C665.11,20.76,652.51,0,620.78,0c-52.35-.01-72.03,56.47-72.03,94.05s19.01,55.94,48.59,55.95c38.56,0,58.79-32.31,60.43-57.81h-33.04c-2.31,14.66-9.89,27.14-23.55,27.14-11.03,0-18.88-8.13-18.88-25.5,0-18.85,9.15-63.15,34.92-63.15,11.38,0,14.4,8.62,14.43,17.82,0,3.07-.31,6.23-.76,9.07h33.6Z"/>
        <path class="cls-1" d="M1046.83,2.3l-6.84,32.52c10.77-1.21,22.16-2.04,32.04-2.5l-24.61,115.45h33.34l24.54-115.45c9.69.46,20.72,1.29,30.97,2.5l6.91-32.52h-96.36Z"/>
        <path class="cls-1" d="M526.52,2.3l-23.05,108.83h-1.79c1.35-13.73,2.5-31.74,2.5-51.61s-1.17-41.85-3.72-57.21h-45.54l-30.92,145.47h31.38l23.03-108.75h1.79c-1.35,13.73-2.5,31.74-2.5,51.61s1.16,41.77,3.72,57.13h45.68L557.96,2.3h-31.44Z"/>
        <path class="cls-1" d="M982.93,2.3c-26.99,50.43-53.02,102.92-70.31,145.47h35.92c4.08-11.11,8.33-22.18,12.74-33.16,6.98-.7,12.52-1.04,19.08-1.04s11.75.32,18.3,1c0,12-.79,23.23-1.36,33.2h35.54c0-48.77-3.14-97.02-8.47-145.47h-41.44ZM986.85,82.99c-4.37,0-8.3.15-12.51.46,6.32-14.43,13.27-29.41,20.82-44.35h1.71c1.19,14.94,1.97,29.9,1.97,44.32-3.98-.29-7.77-.43-11.99-.43Z"/>
    </g>
</svg>