<?xml version="1.0" encoding="UTF-8"?>
<!DOCTYPE svg PUBLIC "-//W3C//DTD SVG 1.1//EN" "http://www.w3.org/Graphics/SVG/1.1/DTD/svg11.dtd">
<svg xmlns="http://www.w3.org/2000/svg" version="1.1" width="1991px" height="1156px" style="shape-rendering:geometricPrecision; text-rendering:geometricPrecision; image-rendering:optimizeQuality; fill-rule:evenodd; clip-rule:evenodd" xmlns:xlink="http://www.w3.org/1999/xlink">
<g><path style="opacity:0.999" fill="#feb0d1" d="M 476.5,271.5 C 822.5,271.333 1168.5,271.5 1514.5,272C 1544.93,272.243 1574.93,275.91 1604.5,283C 1636.63,292.643 1662.8,310.81 1683,337.5C 1699.44,359.8 1709.44,384.8 1713,412.5C 1717.24,446.361 1719.24,480.361 1719,514.5C 1719.76,570.506 1719.42,626.506 1718,682.5C 1717.6,712.344 1713.6,741.677 1706,770.5C 1690.27,813.812 1661.43,844.978 1619.5,864C 1592.29,873.313 1564.29,878.313 1535.5,879C 1182.51,880.653 829.508,880.986 476.5,880C 445.732,879.809 415.399,876.143 385.5,869C 341.122,854.289 308.955,825.789 289,783.5C 280.422,760.61 275.422,736.944 274,712.5C 273.122,700.178 272.455,687.845 272,675.5C 271.333,609.167 271.333,542.833 272,476.5C 272.533,453.37 274.533,430.37 278,407.5C 287.809,352.369 317.976,312.869 368.5,289C 388.147,281.404 408.48,276.737 429.5,275C 445.308,273.625 460.974,272.458 476.5,271.5 Z"/></g>
<g><path style="opacity:1" fill="#0b051d" d="M 452.5,445.5 C 472.167,445.5 491.833,445.5 511.5,445.5C 511.167,488.505 511.5,531.505 512.5,574.5C 527.877,564.292 542.544,553.126 556.5,541C 575.719,522.41 589.219,500.243 597,474.5C 599.22,464.972 600.386,455.305 600.5,445.5C 619.5,445.5 638.5,445.5 657.5,445.5C 656.107,502.624 632.773,548.291 587.5,582.5C 618.621,623.244 649.621,664.077 680.5,705C 656.5,705.667 632.5,705.667 608.5,705C 576.717,662.216 544.551,619.716 512,577.5C 511.5,620.165 511.333,662.832 511.5,705.5C 491.833,705.5 472.167,705.5 452.5,705.5C 452.5,618.833 452.5,532.167 452.5,445.5 Z"/></g>
<g><path style="opacity:1" fill="#0b051d" d="M 698.5,445.5 C 716.833,445.5 735.167,445.5 753.5,445.5C 753.5,532.167 753.5,618.833 753.5,705.5C 735.167,705.5 716.833,705.5 698.5,705.5C 698.5,618.833 698.5,532.167 698.5,445.5 Z"/></g>
<g><path style="opacity:1" fill="#0c051d" d="M 923.5,534.5 C 923.5,531.833 923.5,529.167 923.5,526.5C 941.167,526.5 958.833,526.5 976.5,526.5C 976.5,586.167 976.5,645.833 976.5,705.5C 958.833,705.5 941.167,705.5 923.5,705.5C 922.858,693.849 924.858,682.682 929.5,672C 929.167,671.5 928.833,671 928.5,670.5C 911.774,701.365 885.774,714.531 850.5,710C 818.913,704.411 796.746,686.911 784,657.5C 776.096,634.996 774.429,611.996 779,588.5C 792.708,542.45 823.542,519.95 871.5,521C 897.756,523.787 916.756,536.954 928.5,560.5C 928.18,555.538 927.014,550.538 925,545.5C 924.452,541.83 923.952,538.163 923.5,534.5 Z"/></g>
<g><path style="opacity:1" fill="#0b051d" d="M 1318.5,705.5 C 1300.17,705.5 1281.83,705.5 1263.5,705.5C 1263.83,671.663 1263.5,637.996 1262.5,604.5C 1262.51,587.004 1254.18,575.837 1237.5,571C 1211.58,567.271 1195.75,578.104 1190,603.5C 1189.5,637.498 1189.33,671.498 1189.5,705.5C 1171.17,705.5 1152.83,705.5 1134.5,705.5C 1134.5,645.5 1134.5,585.5 1134.5,525.5C 1152.5,525.5 1170.5,525.5 1188.5,525.5C 1188.89,537.576 1186.55,549.076 1181.5,560C 1181.83,560.167 1182.17,560.333 1182.5,560.5C 1202.62,522.948 1232.96,511.448 1273.5,526C 1298.38,535.905 1313.21,554.071 1318,580.5C 1318.5,622.165 1318.67,663.832 1318.5,705.5 Z"/></g>
<g><path style="opacity:1" fill="#0b051d" d="M 1484.5,526.5 C 1502.17,526.5 1519.83,526.5 1537.5,526.5C 1537.5,586.167 1537.5,645.833 1537.5,705.5C 1519.83,705.5 1502.17,705.5 1484.5,705.5C 1484.5,702.5 1484.5,699.5 1484.5,696.5C 1485.06,688.143 1487.06,680.143 1490.5,672.5C 1490.17,672.167 1489.83,671.833 1489.5,671.5C 1469.5,705.315 1440.16,717.482 1401.5,708C 1363.81,694.831 1342.64,668.331 1338,628.5C 1334.3,598.956 1341.63,572.622 1360,549.5C 1383.21,525.118 1411.37,516.284 1444.5,523C 1465.11,528.777 1480.11,541.277 1489.5,560.5C 1489.83,560 1490.17,559.5 1490.5,559C 1486.4,548.552 1484.4,537.719 1484.5,526.5 Z"/></g>
<g><path style="opacity:1" fill="#0b051d" d="M 1111.5,525.5 C 1112.15,543.864 1111.49,561.864 1109.5,579.5C 1082.93,573.95 1066.76,584.283 1061,610.5C 1060.5,642.165 1060.33,673.832 1060.5,705.5C 1042.17,705.5 1023.83,705.5 1005.5,705.5C 1005.5,645.833 1005.5,586.167 1005.5,526.5C 1023.17,526.5 1040.83,526.5 1058.5,526.5C 1058.58,537.862 1056.58,548.862 1052.5,559.5C 1052.83,559.833 1053.17,560.167 1053.5,560.5C 1058.38,547.801 1066.38,537.634 1077.5,530C 1088.29,524.628 1099.62,523.128 1111.5,525.5 Z"/></g>
<g><path style="opacity:1" fill="#2a1b34" d="M 1111.5,525.5 C 1112.5,543.659 1112.83,561.992 1112.5,580.5C 1111.21,580.737 1110.21,580.404 1109.5,579.5C 1111.49,561.864 1112.15,543.864 1111.5,525.5 Z"/></g>
<g><path style="opacity:1" fill="#4e344f" d="M 923.5,705.5 C 941.167,705.5 958.833,705.5 976.5,705.5C 976.5,645.833 976.5,586.167 976.5,526.5C 958.833,526.5 941.167,526.5 923.5,526.5C 923.5,529.167 923.5,531.833 923.5,534.5C 922.523,531.713 922.19,528.713 922.5,525.5C 940.833,525.5 959.167,525.5 977.5,525.5C 977.5,585.833 977.5,646.167 977.5,706.5C 959.326,706.83 941.326,706.497 923.5,705.5 Z"/></g>
<g><path style="opacity:1" fill="#37243e" d="M 1058.5,526.5 C 1040.83,526.5 1023.17,526.5 1005.5,526.5C 1005.5,586.167 1005.5,645.833 1005.5,705.5C 1023.83,705.5 1042.17,705.5 1060.5,705.5C 1042.01,706.497 1023.34,706.83 1004.5,706.5C 1004.5,646.167 1004.5,585.833 1004.5,525.5C 1022.67,525.17 1040.67,525.503 1058.5,526.5 Z"/></g>
<g><path style="opacity:1" fill="#422c46" d="M 1484.5,526.5 C 1502.33,525.503 1520.33,525.17 1538.5,525.5C 1538.5,585.5 1538.5,645.5 1538.5,705.5C 1538.17,705.5 1537.83,705.5 1537.5,705.5C 1537.5,645.833 1537.5,586.167 1537.5,526.5C 1519.83,526.5 1502.17,526.5 1484.5,526.5 Z"/></g>
<g><path style="opacity:1" fill="#fdafd0" d="M 868.5,569.5 C 895.845,568.029 913.345,580.362 921,606.5C 923.45,625.836 917.283,641.669 902.5,654C 891.154,661.122 878.82,663.455 865.5,661C 840.81,651.811 829.643,633.978 832,607.5C 836.58,587.422 848.747,574.755 868.5,569.5 Z"/></g>
<g><path style="opacity:1" fill="#fdafd0" d="M 1429.5,569.5 C 1456.85,568.033 1474.35,580.366 1482,606.5C 1485.13,633.661 1473.96,651.828 1448.5,661C 1421.17,664.75 1403,653.584 1394,627.5C 1389.7,606.733 1395.86,589.9 1412.5,577C 1418,573.911 1423.67,571.411 1429.5,569.5 Z"/></g>
<g><path style="opacity:1" fill="#6c4965" d="M 1262.5,604.5 C 1263.5,637.996 1263.83,671.663 1263.5,705.5C 1281.83,705.5 1300.17,705.5 1318.5,705.5C 1300.01,706.497 1281.34,706.83 1262.5,706.5C 1262.5,672.5 1262.5,638.5 1262.5,604.5 Z"/></g>
<g><path style="opacity:1" fill="#8b5f7c" d="M 1484.5,696.5 C 1484.5,699.5 1484.5,702.5 1484.5,705.5C 1502.17,705.5 1519.83,705.5 1537.5,705.5C 1537.83,705.5 1538.17,705.5 1538.5,705.5C 1520.34,706.497 1502.01,706.83 1483.5,706.5C 1483.19,702.958 1483.52,699.625 1484.5,696.5 Z"/></g>
</svg>
