<svg id="Calque_1" data-name="Calque 1" xmlns="http://www.w3.org/2000/svg" xmlns:xlink="http://www.w3.org/1999/xlink" viewBox="0 0 64 48"><defs><style>.cls-1{fill:none;}.cls-2{clip-path:url(#clip-path);}.cls-3{clip-path:url(#clip-path-2);}.cls-4{clip-path:url(#clip-path-3);}.cls-5{clip-path:url(#clip-path-4);}.cls-6{clip-path:url(#clip-path-5);}.cls-7{clip-path:url(#clip-path-11);}.cls-8{clip-path:url(#clip-path-12);}.cls-9{clip-path:url(#clip-path-13);}.cls-10{clip-path:url(#clip-path-14);}.cls-11{clip-path:url(#clip-path-15);}.cls-12{clip-path:url(#clip-path-16);}.cls-13{clip-path:url(#clip-path-17);}.cls-14{clip-path:url(#clip-path-18);}.cls-15{clip-path:url(#clip-path-19);}.cls-16{clip-path:url(#clip-path-20);}.cls-17{clip-path:url(#clip-path-21);}.cls-18{clip-path:url(#clip-path-22);}.cls-19{clip-path:url(#clip-path-23);}.cls-20{fill:#fcd205;}.cls-21{fill:#fff;}.cls-22{fill:#ed1c24;}.cls-23{fill:#231f20;}.cls-24{clip-path:url(#clip-path-24);}.cls-25{clip-path:url(#clip-path-25);}</style><clipPath id="clip-path"><polyline class="cls-1" points="191.87 -1042.24 195 -1061.71 200.02 -1061.71 196.88 -1042.24 191.87 -1042.24"/></clipPath><clipPath id="clip-path-2"><path class="cls-1" d="M215.09-1061.23a12.37,12.37,0,0,0-4.5-.82c-5,0-8.45,2.64-8.48,6.42,0,2.8,2.49,4.37,4.39,5.3s2.61,1.56,2.61,2.41c0,1.31-1.56,1.9-3,1.9a10,10,0,0,1-4.72-1l-.65-.31L200-1043a15.07,15.07,0,0,0,5.59,1c5.27,0,8.7-2.61,8.74-6.65,0-2.22-1.32-3.9-4.22-5.29-1.75-.91-2.83-1.5-2.81-2.42s.91-1.67,2.87-1.67a8.69,8.69,0,0,1,3.76.75l.45.22.68-4.22"/></clipPath><clipPath id="clip-path-3"><path class="cls-1" d="M221.77-1049.14c.42-1.12,2-5.45,2-5.45s.42-1.13.67-1.86l.34,1.68,1.16,5.63ZM228-1061.7h-3.88a2.48,2.48,0,0,0-2.63,1.62L214-1042.23h5.27l1-2.93h6.43c.15.68.61,2.92.61,2.92H232L228-1061.7Z"/></clipPath><clipPath id="clip-path-4"><path class="cls-1" d="M187.65-1061.7l-4.91,13.28-.53-2.7a14.91,14.91,0,0,0-7-8.17l4.5,17h5.31l7.9-19.44h-5.32"/></clipPath><clipPath id="clip-path-5"><path class="cls-1" d="M178.18-1061.71h-8.09l-.07.4c6.3,1.61,10.47,5.51,12.19,10.19l-1.75-9a2.1,2.1,0,0,0-2.28-1.64"/></clipPath><clipPath id="clip-path-11"><path class="cls-1" d="M734.81-952.56a10.24,10.24,0,0,0,6.44,9.31,25.19,25.19,0,0,1-3.32,6.54c-2,2.8-4.08,5.59-7.35,5.65s-4.24-1.83-7.91-1.83-4.82,1.77-7.86,1.89-5.56-3-7.57-5.83c-4.12-5.71-7.27-16.13-3-23.17a11.79,11.79,0,0,1,9.93-5.76c3.09-.06,6,2,7.91,2s5.45-2.47,9.19-2.11a11.38,11.38,0,0,1,8.77,4.57,10.36,10.36,0,0,0-5.18,8.75m-6-17.1a9.82,9.82,0,0,0,2.49-7.34,10.91,10.91,0,0,0-7.06,3.48,9.38,9.38,0,0,0-2.55,7.12,9.06,9.06,0,0,0,7.12-3.26"/></clipPath><clipPath id="clip-path-12"><path class="cls-1" d="M539.68-209.51a2.53,2.53,0,0,0,2.54-2.54h0a2.54,2.54,0,0,0-2.54-2.54h0a2.53,2.53,0,0,0-2.54,2.54A2.53,2.53,0,0,0,539.68-209.51Zm-19.49,1.38a18.2,18.2,0,0,1-2.94,5v-10.35l-5.33,1.05v18.76h5.33v-5.8a20.2,20.2,0,0,1,2.3,5.8h6.38c-.63-2.63-3.39-7.46-3.39-7.46a23.55,23.55,0,0,0,3.74-7Zm14-.19c-4.77.15-7.19,2.29-7.19,6.54v8.16h5.2v-6.65c0-2.55.33-3.64,3.36-3.75v-4.23a7,7,0,0,0-1.37-.07ZM503-206.06c-.66-.05-2.17-.14-2.17-1.5,0-1.64,2.18-1.64,3-1.64a17.65,17.65,0,0,1,4.61.82s.74.26,1.37.52l.06,0v-4.49l-.08,0a18.53,18.53,0,0,0-6.76-1.07c-5.82,0-7.88,3.39-7.88,6.29,0,1.68.72,5.62,7.38,6.07.57,0,2.06.12,2.06,1.53,0,1.16-1.22,1.84-3.29,1.84a16.42,16.42,0,0,1-5.79-1.12v4.63a27.09,27.09,0,0,0,6.89.78c5.68,0,8.23-3.21,8.23-6.38,0-3.61-2.85-6-7.63-6.27Zm34.11,12.44h5.16v-14.49H537.1ZM552-212.51v18.89h5.16v-19.81l-5.16.92Zm-7.54,0,5.16-.92v19.8h-5.16v-18.88Z"/></clipPath><clipPath id="clip-path-13"><path class="cls-1" d="M721.63-113a23.24,23.24,0,0,1,10.16,2.34q.72.33,1.44.75L731.1-108l-3.21-3.28-5.41,4.78L719.26-110l-10.07,9,6.46,7.06-2.54,2.22,6.36,7.08L717-82.42l9.09,10,5.4-4.93L736.1-72a24,24,0,0,1-3.05,2,23.19,23.19,0,0,1-11.42,3,23.13,23.13,0,0,1-23.17-23,23.13,23.13,0,0,1,23.17-23"/></clipPath><clipPath id="clip-path-14"><polyline class="cls-1" points="717.41 -91.45 722.92 -96.38 727.88 -90.91 722.38 -85.97 717.42 -91.44"/></clipPath><clipPath id="clip-path-15"><polyline class="cls-1" points="721.33 -82 726.84 -86.93 731.8 -81.46 726.29 -76.53 721.33 -82.01"/></clipPath><clipPath id="clip-path-16"><polyline class="cls-1" points="713.47 -100.79 718.98 -105.72 723.94 -100.25 718.43 -95.32 713.47 -100.79"/></clipPath><clipPath id="clip-path-17"><polyline class="cls-1" points="723.58 -103.45 727.71 -107.14 731.42 -103.04 727.29 -99.33 723.58 -103.44"/></clipPath><clipPath id="clip-path-18"><polyline class="cls-1" points="730.92 -86.53 735.06 -90.24 738.76 -86.13 734.63 -82.43 730.91 -86.53"/></clipPath><clipPath id="clip-path-19"><polyline class="cls-1" points="734.56 -78.25 738.69 -81.95 742.41 -77.85 738.28 -74.15 734.57 -78.25"/></clipPath><clipPath id="clip-path-20"><polyline class="cls-1" points="736.22 -97.23 738.98 -99.69 741.46 -96.96 738.71 -94.5 736.22 -97.23"/></clipPath><clipPath id="clip-path-21"><polyline class="cls-1" points="732.7 -105.36 735.46 -107.82 737.94 -105.08 735.18 -102.62 732.7 -105.36"/></clipPath><clipPath id="clip-path-22"><polyline class="cls-1" points="739.75 -89.11 742.5 -91.57 744.98 -88.83 742.23 -86.37 739.75 -89.11"/></clipPath><clipPath id="clip-path-23"><polyline class="cls-1" points="727.39 -95.19 731.52 -98.9 735.23 -94.8 731.1 -91.09 727.38 -95.19"/></clipPath><clipPath id="clip-path-24"><path class="cls-1" d="M512.79-439.91a11.08,11.08,0,0,1,1.94-.58c1.26-5.19,6.36-8.88,12.23-8.86s11,3.68,12.23,8.87a9.42,9.42,0,0,1,4.58,2,14.45,14.45,0,0,0-.12-2.79c-.84-7.78-8.09-13.69-16.73-13.65-8.94,0-16.33,6.28-16.78,14.35-.05.72-.06,1.44,0,2.16a11,11,0,0,1,2.65-1.47"/></clipPath><clipPath id="clip-path-25"><path class="cls-1" d="M516.67-438.77a8.09,8.09,0,0,0-3,.61,8.39,8.39,0,0,0-2.47,1.41,8.5,8.5,0,0,0-1.93,5.87v14a8.41,8.41,0,0,0,1.93,5.86,8.32,8.32,0,0,0,2.47,1.43,8.33,8.33,0,0,0,3,.61H536.8q7.8-.07,7.93-7.61v-14.61q-.12-7.54-7.93-7.6Z"/></clipPath></defs><title>postfinance-efinance</title><path id="path22" class="cls-20" d="M1.65,47h60.7V1H1.65Z"/><path id="path24" class="cls-21" d="M34.76,36.48,36.35,29H7L5.43,36.48H34.76"/><path id="path26" class="cls-22" d="M50.39,18.69s1.74-8,1.77-8H41.1s-2.29,10.58-2.29,10.63h2.83s1.74-7.95,1.74-7.95h5.37s-1.69,8-1.74,8h8.18l-1.07,4.92H46c0,.05-1.64,7.51-1.64,7.51H38.21s-.55,2.68-.57,2.7h9S48.3,29,48.3,29h8.13s2.14-10.21,2.14-10.26H50.39"/><path class="cls-23" d="M35.62,23.36a4.62,4.62,0,0,0-5-5c-4.43,0-7.11,3.63-7.11,7.63,0,3.43,2.28,5.44,5.84,5.44a11.5,11.5,0,0,0,3.53-.52l.64-3a10.41,10.41,0,0,1-3.53.67c-1.59,0-3-.55-3.05-2.47h8.2A9.69,9.69,0,0,0,35.62,23.36Zm-3.33.45H27.24c.53-1.67,1.64-2.76,3.14-2.76a1.91,1.91,0,0,1,2,2.11A4.62,4.62,0,0,1,32.29,23.81Z"/><path class="cls-23" d="M17.7,14.39H13.08L9.55,31.09h3.58L14.22,26h1.57c5,0,7.78-2.46,7.78-6.57C23.57,16.38,21.4,14.39,17.7,14.39Zm-1.37,8.55H14.84L16,17.45H17.5c1.64,0,2.44.67,2.44,2.23C19.94,21.7,18.67,22.94,16.33,22.94Z"/></svg>