<svg width="203" height="49" fill="none" xmlns="http://www.w3.org/2000/svg"><path d="M78.397 14.826c0 8.516-6.516 14.825-15.368 14.825-8.824 0-15.34-6.309-15.34-14.825C47.692 6.309 54.209 0 63.033 0c8.852 0 15.363 6.31 15.363 14.826zm-21.478 0c0 3.786 2.593 6.453 6.115 6.453 3.545 0 6.142-2.667 6.142-6.453 0-3.787-2.592-6.454-6.142-6.454-3.518 0-6.115 2.667-6.115 6.454zm54.673 0c0 8.516-6.517 14.825-15.369 14.825-8.824 0-15.34-6.309-15.34-14.825C80.888 6.309 87.399 0 96.223 0c8.852 0 15.369 6.31 15.369 14.826zm-21.479 0c0 3.786 2.593 6.453 6.115 6.453 3.546 0 6.143-2.667 6.143-6.453 0-3.787-2.593-6.454-6.143-6.454-3.522 0-6.115 2.667-6.115 6.454zm82.211 0c0 .92-.056 2.179-.173 2.783H152.98c.747 3.066 2.938 4.502 6.054 4.502 2.107 0 4.381-.86 6.171-2.467l5.825 5.39c-2.943 2.926-7.236 4.617-12.454 4.617-8.88 0-14.906-5.877-14.906-14.653C143.665 6.138 149.574 0 158.17 0c8.389 0 14.126 6.021 14.154 14.826zm-19.316-2.895h10.291c-.72-2.81-2.481-4.302-5.101-4.302-2.798 0-4.499 1.52-5.19 4.302zm-107.799.888c0-6.12-2.915-9.91-7.199-11.662l-.005-.01c-.331-.134-.668-.25-1.013-.362l-.136-.042a16.401 16.401 0 00-2.433-.548c-.024-.005-.042-.005-.066-.01-.416-.06-.836-.101-1.266-.134-.046-.005-.093-.005-.145-.01C32.526.02 32.102 0 31.672 0h-.028c-3.475 0-6.638.878-9.039 2.69C20.208.878 17.041 0 13.565 0h-.028c-.42 0-.831.019-1.238.042l-.205.014a16.87 16.87 0 00-1.22.13c-.041.004-.083.014-.125.018-.402.06-.8.13-1.187.219-.014.004-.028.004-.042.01a15.32 15.32 0 00-1.317.361c-.337.107-.673.223-.995.358l-.005.01C2.915 2.908 0 6.7 0 12.819v16.056h9.025V13.608c0-1.157.196-2.109.546-2.87.734-1.6 2.163-2.356 3.976-2.361 1.887.005 3.354.822 4.064 2.546.299.73.467 1.621.467 2.69v15.272h9.053V13.608c0-1.184.205-2.155.574-2.927.743-1.556 2.159-2.3 3.948-2.304 1.84.005 3.284.776 4.012 2.42.332.753.519 1.687.519 2.816v15.272h9.025V12.819zm95.97 0c0-6.133-2.928-9.924-7.226-11.671l-.005-.01c-.117-.046-.243-.079-.359-.12a14.726 14.726 0 00-.907-.312c-.186-.056-.378-.102-.57-.153-.28-.07-.56-.14-.845-.195a13.47 13.47 0 00-.621-.112 19.023 19.023 0 00-.897-.116c-.201-.023-.397-.046-.598-.065a20.554 20.554 0 00-1.322-.056c-.065 0-.126-.009-.187-.009h-.075c-.5 0-.99.023-1.476.06-.182.014-.36.038-.542.056a15.85 15.85 0 00-2.429.437c-.177.046-.355.088-.532.144-.327.097-.645.209-.963.33-.102.037-.214.065-.317.107l-.005.009c-4.297 1.747-7.226 5.538-7.226 11.67v16.058h9.025V13.608c0-1.091.172-2.002.49-2.745.715-1.687 2.172-2.481 4.031-2.49 1.897.004 3.368.83 4.074 2.573.294.725.458 1.608.458 2.658v15.271h9.024V12.82z" fill="#4F4F4F"/><path d="M191.774 21.495L180.878 0h-10.152l11.63 21.495-11.63 21.496h10.152l10.896-21.496z" fill="#FFC627"/><path d="M190.004 12.382l3.181 6.254L203 0h-9.661l-4.774 9.552 1.439 2.83zM61.428 35.784h-.383v10.672h.383V35.784zm13.939.39h-8.838a.583.583 0 00-.584.581v8.846c0 .32.261.581.584.581h2.475c.225 0 .426.125.524.32l.887 1.77a.578.578 0 00.533.321c.21.005.42-.102.532-.32l.888-1.77a.58.58 0 01.523-.321h2.476c.322 0 .584-.26.584-.58v-8.847a.577.577 0 00-.584-.58z" fill="#4F4F4F"/><path d="M73.419 41.564c-.444-.906-1.406-1.547-2.425-1.547-.369 0-.504.009-.817.111v-.018l.084-.883h2.822v-1.529l-4.102.014-.5 3.903-.009.07 1.299.566a1.26 1.26 0 011.186-.831c.696 0 1.261.562 1.261 1.254 0 .693-.565 1.255-1.26 1.255-.491 0-.916-.28-1.127-.688l-1.378.441-.126.042c.215.474.556.86 1.019 1.162a2.852 2.852 0 001.555.45c.77 0 1.43-.26 1.98-.785.01-.01.02-.018.033-.032a2.683 2.683 0 00.505-2.955z" fill="#fff"/><path d="M11.482 39.083H9.33v6.978h2.153v-6.978zm.023-2.909h-2.2v1.942h2.2v-1.942zm5.171 5.326c-.822-.28-1.546-.48-1.546-.902v-.028c0-.297.27-.52.794-.52.551 0 1.303.269 2.055.706l.823-1.478c-.823-.548-1.869-.873-2.831-.873-1.528 0-2.775.86-2.775 2.392v.028c0 1.464 1.205 1.956 2.266 2.268.836.25 1.57.408 1.57.873v.028c0 .34-.286.562-.907.562-.705 0-1.57-.311-2.392-.901l-.92 1.408a5.323 5.323 0 003.256 1.138c1.64 0 2.9-.757 2.9-2.435v-.027c0-1.38-1.228-1.887-2.293-2.24zM4.7 40.16c-1.715-.436-2.14-.645-2.14-1.295v-.028c0-.479.439-.86 1.275-.86.836 0 1.7.367 2.579.971l1.135-1.63c-1.005-.804-2.238-1.255-3.681-1.255-2.023 0-3.47 1.185-3.47 2.973v.028c0 1.956 1.288 2.505 3.283 3.016 1.658.422 1.995.701 1.995 1.254v.028c0 .576-.538.93-1.43.93-1.135 0-2.065-.465-2.957-1.2L0 44.627A6.336 6.336 0 004.204 46.2c2.135 0 3.64-1.097 3.64-3.057v-.028c0-1.715-1.131-2.435-3.145-2.955zm18.857-1.732c-1.289 0-2.111.241-2.943.604l.538 1.63c.691-.25 1.275-.408 2.092-.408 1.075 0 1.63.492 1.63 1.38v.125a5.338 5.338 0 00-1.854-.311c-1.798 0-3.06.762-3.06 2.406v.028c0 1.492 1.178 2.31 2.607 2.31 1.046 0 1.77-.382 2.294-.958v.818h2.078v-4.381c.005-2.03-1.032-3.243-3.382-3.243zm1.346 4.971c0 .776-.678 1.324-1.687 1.324-.691 0-1.177-.339-1.177-.915v-.028c0-.678.565-1.045 1.486-1.045a3.31 3.31 0 011.373.283v.381h.005zm27.729.256l-1.729-5.139h-2.28L51.6 46.09c-.187.381-.383.493-.752.493-.285 0-.635-.126-.92-.298l-.72 1.547a3.55 3.55 0 001.911.52c1.29 0 1.91-.575 2.49-2.113l2.915-7.731h-2.238l-1.653 5.148zm-21.586.72c-.336 0-.453-.256-.453-.65v-7.546h-2.168v8.084c0 1.413.673 1.924 1.743 1.924a4.98 4.98 0 001.635-.283l-.075-1.706c-.22.103-.453.177-.682.177zm13.807-5.947c-1.289 0-2.111.241-2.943.604l.538 1.63c.69-.25 1.275-.408 2.092-.408 1.075 0 1.63.492 1.63 1.38v.125a5.338 5.338 0 00-1.854-.311c-1.798 0-3.06.762-3.06 2.406v.028c0 1.492 1.178 2.31 2.607 2.31 1.046 0 1.77-.382 2.294-.958v.818h2.078v-4.381c0-2.03-1.032-3.243-3.382-3.243zm1.346 4.971c0 .776-.682 1.324-1.687 1.324-.691 0-1.177-.339-1.177-.915v-.028c0-.678.565-1.045 1.49-1.045a3.31 3.31 0 011.374.283v.381zm-9.072-7.215H33.51v9.882h2.182v-2.96h1.658c2.224 0 3.574-1.184 3.574-3.466v-.028c0-2.011-1.434-3.428-3.798-3.428zm1.588 3.498c0 .846-.635 1.491-1.728 1.491h-1.294V38.14h1.252c1.088 0 1.77.543 1.77 1.514v.028z" fill="#4F4F4F"/></svg>